<svg xmlns="http://www.w3.org/2000/svg" viewBox="0 0 1000 840" role="img" aria-labelledby="title desc">
<title id="title">MALES Cotton Combed 24s X-Ray Schematic</title><desc id="desc">Visual schematic cutaway kaos oversize dengan lapisan serat cotton combed, aliran udara, dan callout ramah iklim tropis Indonesia.</desc>
<defs><linearGradient id="bg" x1="0" x2="1" y1="0" y2="1"><stop stop-color="#fafdff"/><stop offset="1" stop-color="#e4f1ff"/></linearGradient><linearGradient id="shirt" x1="0" x2="1"><stop stop-color="#ffffff" stop-opacity=".88"/><stop offset="1" stop-color="#cfe7ff" stop-opacity=".55"/></linearGradient><pattern id="weave" width="18" height="18" patternUnits="userSpaceOnUse"><path d="M0 9H18M9 0V18" stroke="#4b8fd4" stroke-width="1" opacity=".28"/><circle cx="4" cy="4" r="1.4" fill="#2475c7" opacity=".3"/></pattern><marker id="arrow" markerWidth="8" markerHeight="8" refX="6" refY="4" orient="auto"><path d="M0 0L8 4L0 8Z" fill="#1268e8"/></marker></defs>
<rect width="1000" height="840" rx="34" fill="url(#bg)"/><g opacity=".18" stroke="#1268e8" stroke-width="1"><path d="M40 130H960M40 220H960M40 310H960M40 400H960M40 490H960M40 580H960M40 670H960M40 760H960"/><path d="M120 40V800M240 40V800M360 40V800M480 40V800M600 40V800M720 40V800M840 40V800"/></g>
<g transform="translate(80 70)"><text x="0" y="0" font-family="Arial,sans-serif" font-size="15" letter-spacing="4" fill="#0753bd">MALES MATERIAL STUDY / 01</text><text x="0" y="35" font-family="Arial,sans-serif" font-size="30" font-weight="700" fill="#101820">COTTON COMBED 24s</text><text x="0" y="62" font-family="Arial,sans-serif" font-size="13" fill="#657180">OVERSIZE STREETWEAR · TROPICAL DAILY WEAR</text></g>
<g transform="translate(110 165)"><path d="M235 42L166 0L80 82L145 145L172 123L172 360Q172 405 215 423L350 456L485 423Q528 405 528 360V123L555 145L620 82L534 0L465 42Q350 76 235 42Z" fill="url(#shirt)" stroke="#1268e8" stroke-width="4"/><path d="M291 50Q350 105 409 50" fill="none" stroke="#0753bd" stroke-width="5"/><path d="M172 123L210 145M528 123L490 145" stroke="#0753bd" stroke-width="3" opacity=".7"/>
<path d="M215 423L350 456L485 423" fill="none" stroke="#1268e8" stroke-width="3" stroke-dasharray="8 8"/><rect x="282" y="185" width="136" height="88" rx="10" fill="#fff" opacity=".62" stroke="#1268e8" stroke-width="2"/><text x="350" y="225" text-anchor="middle" font-family="Arial,sans-serif" font-size="28" font-weight="700" fill="#101820">MALES</text><text x="350" y="249" text-anchor="middle" font-family="Arial,sans-serif" font-size="9" letter-spacing="2" fill="#1268e8">ORIGINAL STREETWEAR</text>
<path d="M80 82Q40 170 112 224" fill="none" stroke="#1268e8" stroke-width="3" marker-end="url(#arrow)"/><path d="M620 82Q660 170 588 224" fill="none" stroke="#1268e8" stroke-width="3" marker-end="url(#arrow)"/><path d="M245 455Q350 505 455 455" fill="none" stroke="#1268e8" stroke-width="3" marker-end="url(#arrow)"/>
</g>
<g transform="translate(665 165)" font-family="Arial,sans-serif"><text x="0" y="0" font-size="13" letter-spacing="2" font-weight="700" fill="#0753bd">CUTAWAY / MATERIAL LOGIC</text><g transform="translate(0 35)"><rect width="250" height="68" rx="12" fill="#fff" stroke="#b8d0e7"/><rect x="16" y="18" width="70" height="30" rx="5" fill="url(#weave)"/><text x="102" y="31" font-size="12" font-weight="700" fill="#101820">OUTER</text><text x="102" y="49" font-size="11" fill="#657180">Cotton combed 24s</text></g><g transform="translate(0 118)"><rect width="250" height="68" rx="12" fill="#fff" stroke="#b8d0e7"/><path d="M16 34C32 18 48 50 64 34S96 34 112 34" fill="none" stroke="#1268e8" stroke-width="4"/><text x="126" y="31" font-size="12" font-weight="700" fill="#101820">WEAVE</text><text x="126" y="49" font-size="11" fill="#657180">Serat rapat, tetap bernapas</text></g><g transform="translate(0 201)"><rect width="250" height="68" rx="12" fill="#fff" stroke="#b8d0e7"/><circle cx="35" cy="34" r="15" fill="#dceeff" stroke="#1268e8"/><path d="M35 23V45M24 34H46" stroke="#1268e8"/><text x="62" y="31" font-size="12" font-weight="700" fill="#101820">AIRFLOW</text><text x="62" y="49" font-size="11" fill="#657180">Ruang gerak & sirkulasi</text></g><g transform="translate(0 284)"><rect width="250" height="68" rx="12" fill="#fff" stroke="#b8d0e7"/><text x="16" y="29" font-size="22" font-weight="700" fill="#1268e8">TROPIS</text><text x="16" y="49" font-size="11" fill="#657180">Dirancang untuk iklim Indonesia</text></g></g>
<g transform="translate(80 700)" font-family="Arial,sans-serif"><text x="0" y="0" font-size="11" letter-spacing="2" fill="#0753bd">MALES / MATERIAL NOTE</text><text x="0" y="25" font-size="13" fill="#4f5c69">Cotton Combed 24s Reguler · lembut · breathable · nyaman untuk aktivitas harian · visual material schematic</text></g>
</svg>
